<svg width="18" height="20" viewBox="0 0 18 20" fill="none" xmlns="http://www.w3.org/2000/svg">
<path d="M8.63855 0.00896065C4.59682 0.19933 1.49988 3.67187 1.49988 7.6906V11.3244L0.174688 13.9904C0.172357 13.9953 0.170078 14.0001 0.167852 14.0051C-0.365276 15.1388 0.497737 16.5002 1.75086 16.5002H5.99988C5.99988 18.1481 7.35195 19.5002 8.99988 19.5002C10.6478 19.5002 11.9999 18.1481 11.9999 16.5002H16.2479C17.5011 16.5002 18.3652 15.1391 17.8319 14.0051C17.8297 14.0001 17.8274 13.9953 17.8251 13.9904L16.4999 11.3244V7.50017C16.4999 3.24707 12.9315 -0.193146 8.63855 0.00896065ZM8.70887 1.50701C12.1689 1.34411 14.9999 4.08127 14.9999 7.50017V11.5002C14.9998 11.616 15.0265 11.7304 15.078 11.8342L16.4745 14.6447C16.5643 14.8372 16.4604 15.0002 16.2479 15.0002H1.75086C1.5384 15.0002 1.43534 14.8375 1.52527 14.6447V14.6437L2.92176 11.8342C2.97325 11.7304 2.99999 11.616 2.99988 11.5002V7.6906C2.99988 4.44034 5.48961 1.65864 8.70887 1.50701ZM7.49988 16.5002H10.4999C10.4999 17.3372 9.83695 18.0002 8.99988 18.0002C8.16282 18.0002 7.49988 17.3372 7.49988 16.5002Z" fill="#1A1A1A"/>
</svg>
