<svg width="24" height="24" viewBox="0 0 24 24" fill="none" xmlns="http://www.w3.org/2000/svg">
<path d="M17.6 20.525L21.075 17.075L20.025 16.025L17.6 18.4L16.625 17.425L15.575 18.5L17.6 20.525ZM6 8.5H18V7H6V8.5ZM18.3125 22.975C17.0208 22.975 15.9167 22.5125 15 21.5875C14.0833 20.6625 13.625 19.5667 13.625 18.3C13.625 16.9928 14.0832 15.8784 14.9997 14.957C15.9162 14.0357 17.0247 13.575 18.325 13.575C19.6083 13.575 20.7125 14.0357 21.6375 14.957C22.5625 15.8784 23.025 16.9928 23.025 18.3C23.025 19.5667 22.5625 20.6625 21.6375 21.5875C20.7125 22.5125 19.6042 22.975 18.3125 22.975ZM3 21.975V4.5C3 4.0875 3.14688 3.73438 3.44063 3.44063C3.73438 3.14688 4.0875 3 4.5 3H19.5C19.9125 3 20.2656 3.14688 20.5594 3.44063C20.8531 3.73438 21 4.0875 21 4.5V12.675C20.7639 12.5607 20.5215 12.4655 20.2729 12.3893C20.0243 12.3131 19.7667 12.25 19.5 12.2V4.5H4.5V19.475H12.25C12.2981 19.7779 12.3726 20.0661 12.4735 20.3397C12.5745 20.6132 12.6917 20.8833 12.825 21.15L12 21.975L10.5 20.475L9 21.975L7.5 20.475L6 21.975L4.5 20.475L3 21.975ZM6 17H12.3068C12.3689 16.7333 12.4375 16.475 12.5125 16.225C12.5875 15.975 12.6917 15.7333 12.825 15.5H6V17ZM6 12.75H15.6C15.9667 12.5667 16.35 12.4208 16.75 12.3125C17.15 12.2042 17.5667 12.1333 18 12.1V11.25H6V12.75Z" fill="#2C2E31"/>
</svg>
