<svg width="22" height="22" viewBox="0 0 22 22" fill="none" xmlns="http://www.w3.org/2000/svg">
<path d="M14.975 2.675L11.6 0.65C11.375 0.575 11.225 0.5 11 0.5C10.775 0.5 10.625 0.575 10.475 0.65L7.1 2.675C6.725 2.9 6.5 3.275 6.5 3.65V7.85C6.5 8.225 6.725 8.6 7.025 8.825L10.4 10.85C10.55 10.925 10.775 11 10.925 11C11.075 11 11.3 10.925 11.45 10.85L14.825 8.825C15.125 8.6 15.35 8.3 15.35 7.85V3.65C15.5 3.275 15.275 2.9 14.975 2.675ZM14 7.625L11 9.425L8 7.625V3.875L11 2.075L14 3.875V7.625ZM20.975 13.175L17.6 11.15C17.375 11.075 17.225 11 17 11C16.775 11 16.625 11.075 16.475 11.15L13.1 13.175C12.8 13.4 12.575 13.7 12.575 14.15V18.35C12.575 18.725 12.8 19.1 13.1 19.325L16.475 21.35C16.625 21.425 16.85 21.5 17 21.5C17.15 21.5 17.375 21.425 17.525 21.35L20.9 19.325C21.2 19.1 21.425 18.8 21.425 18.35V14.15C21.5 13.775 21.275 13.4 20.975 13.175ZM20 18.125L17 19.925L14 18.125V14.375L17 12.575L20 14.375V18.125ZM8.975 13.175L5.6 11.15C5.375 11.075 5.225 11 5 11C4.775 11 4.625 11.075 4.475 11.15L1.1 13.175C0.725 13.4 0.5 13.775 0.5 14.15V18.35C0.5 18.725 0.725 19.1 1.025 19.325L4.4 21.35C4.625 21.425 4.775 21.5 5 21.5C5.225 21.5 5.375 21.425 5.525 21.35L8.9 19.325C9.2 19.1 9.425 18.8 9.425 18.35V14.15C9.5 13.775 9.275 13.4 8.975 13.175ZM8 18.125L5 19.925L2 18.125V14.375L5 12.575L8 14.375V18.125Z" fill="#2C2E31"/>
</svg>
