<svg width="233" height="50" viewBox="0 0 233 50" fill="none" xmlns="http://www.w3.org/2000/svg">
<rect x="0.5" y="0.5" width="232" height="49" rx="5.5" fill="white" stroke="#004BBB"/>
<path d="M216.723 22.5853L210.517 28.7972C210.443 28.871 210.363 28.9231 210.277 28.9535C210.191 28.9845 210.099 29 210 29C209.901 29 209.809 28.9845 209.723 28.9535C209.637 28.9231 209.557 28.871 209.483 28.7972L203.259 22.5853C203.086 22.4132 203 22.1982 203 21.9401C203 21.682 203.092 21.4608 203.277 21.2765C203.462 21.0922 203.677 21 203.923 21C204.17 21 204.385 21.0922 204.57 21.2765L210 26.6959L215.43 21.2765C215.602 21.1045 215.815 21.0184 216.067 21.0184C216.32 21.0184 216.538 21.1106 216.723 21.2949C216.908 21.4793 217 21.6943 217 21.9401C217 22.1859 216.908 22.4009 216.723 22.5853Z" fill="#004BBB"/>
<path d="M24.7292 15.833C23.5926 15.833 22.6667 16.7588 22.6667 17.8955V32.1038C22.6667 33.2405 23.5926 34.1663 24.7292 34.1663H30.7476C30.3534 33.763 30.0233 33.3001 29.7575 32.7913H24.7292C24.3488 32.7913 24.0417 32.4843 24.0417 32.1038V17.8955C24.0417 17.5151 24.3488 17.208 24.7292 17.208H35.2709C35.6513 17.208 35.9584 17.5151 35.9584 17.8955V24.1519C36.4351 24.2299 36.898 24.358 37.3334 24.5413V17.8955C37.3334 16.7588 36.4076 15.833 35.2709 15.833H24.7292ZM30.0001 18.583C29.5746 18.583 29.1666 18.752 28.8658 19.0529C28.5649 19.3537 28.3959 19.7617 28.3959 20.1872C28.3959 20.6126 28.5649 21.0207 28.8658 21.3215C29.1666 21.6223 29.5746 21.7913 30.0001 21.7913C30.4255 21.7913 30.8336 21.6223 31.1344 21.3215C31.4352 21.0207 31.6042 20.6126 31.6042 20.1872C31.6042 19.7617 31.4352 19.3537 31.1344 19.0529C30.8336 18.752 30.4255 18.583 30.0001 18.583ZM27.9376 22.708C27.5581 22.708 27.2501 23.016 27.2501 23.3955V23.8538C27.2501 24.7398 28.4812 25.458 30.0001 25.458C31.519 25.458 32.7501 24.7398 32.7501 23.8538V23.3955C32.7501 23.016 32.4421 22.708 32.0626 22.708H27.9376ZM35.0417 24.9997C32.2574 24.9997 30.0001 27.257 30.0001 30.0413C30.0001 32.8257 32.2574 35.083 35.0417 35.083C37.8261 35.083 40.0834 32.8257 40.0834 30.0413C40.0834 27.257 37.8261 24.9997 35.0417 24.9997ZM35.0417 26.3747C35.2952 26.3747 35.5001 26.58 35.5001 26.833V31.6849L37.0094 30.1756C37.1886 29.9964 37.4783 29.9964 37.6575 30.1756C37.8367 30.3548 37.8367 30.6445 37.6575 30.8237L35.3658 33.1154C35.1866 33.2946 34.8969 33.2946 34.7177 33.1154L32.426 30.8237C32.2468 30.6445 32.2468 30.3548 32.426 30.1756C32.5154 30.0862 32.6327 30.0413 32.7501 30.0413C32.8674 30.0413 32.9848 30.0862 33.0741 30.1756L34.5834 31.6849V26.833C34.5834 26.58 34.7883 26.3747 35.0417 26.3747ZM26.5626 26.833C26.1822 26.833 25.8751 27.1401 25.8751 27.5205C25.8751 27.9009 26.1822 28.208 26.5626 28.208H29.377C29.5329 27.7176 29.7529 27.2593 30.0234 26.833H26.5626ZM26.5626 29.583C26.1822 29.583 25.8751 29.8901 25.8751 30.2705C25.8751 30.6509 26.1822 30.958 26.5626 30.958H29.1523C29.1065 30.6555 29.0834 30.353 29.0834 30.0413C29.0834 29.8855 29.0884 29.7343 29.1067 29.583H26.5626Z" fill="#004BBB"/>
<path d="M52.316 30V20.2H56.25C56.9593 20.2 57.5987 20.3167 58.168 20.55C58.7467 20.7833 59.2413 21.1193 59.652 21.558C60.0627 21.9967 60.38 22.5147 60.604 23.112C60.828 23.7093 60.94 24.372 60.94 25.1C60.94 25.828 60.828 26.4953 60.604 27.102C60.38 27.6993 60.0627 28.2173 59.652 28.656C59.2507 29.0853 58.7607 29.4167 58.182 29.65C57.6033 29.8833 56.9593 30 56.25 30H52.316ZM54.122 28.586L53.996 28.32H56.18C56.6373 28.32 57.048 28.2453 57.412 28.096C57.776 27.9467 58.0793 27.7367 58.322 27.466C58.574 27.186 58.7653 26.8453 58.896 26.444C59.036 26.0427 59.106 25.5947 59.106 25.1C59.106 24.6053 59.036 24.162 58.896 23.77C58.7653 23.3687 58.574 23.028 58.322 22.748C58.07 22.468 57.762 22.2533 57.398 22.104C57.0433 21.9547 56.6373 21.88 56.18 21.88H53.954L54.122 21.642V28.586ZM65.95 30.14C65.2127 30.14 64.5547 29.9767 63.976 29.65C63.3974 29.314 62.94 28.8567 62.604 28.278C62.2774 27.6993 62.114 27.0413 62.114 26.304C62.114 25.5667 62.2774 24.9087 62.604 24.33C62.94 23.7513 63.3974 23.2987 63.976 22.972C64.5547 22.636 65.2127 22.468 65.95 22.468C66.678 22.468 67.3314 22.636 67.91 22.972C68.4887 23.2987 68.9414 23.7513 69.268 24.33C69.604 24.9087 69.772 25.5667 69.772 26.304C69.772 27.0413 69.604 27.6993 69.268 28.278C68.9414 28.8567 68.4887 29.314 67.91 29.65C67.3314 29.9767 66.678 30.14 65.95 30.14ZM65.95 28.614C66.3514 28.614 66.7107 28.516 67.028 28.32C67.3454 28.1147 67.5927 27.8393 67.77 27.494C67.9567 27.1393 68.0454 26.7427 68.036 26.304C68.0454 25.856 67.9567 25.4593 67.77 25.114C67.5927 24.7593 67.3454 24.484 67.028 24.288C66.7107 24.092 66.3514 23.994 65.95 23.994C65.5487 23.994 65.1847 24.0967 64.858 24.302C64.5407 24.498 64.2934 24.7733 64.116 25.128C63.9387 25.4733 63.85 25.8653 63.85 26.304C63.85 26.7427 63.9387 27.1393 64.116 27.494C64.2934 27.8393 64.5407 28.1147 64.858 28.32C65.1847 28.516 65.5487 28.614 65.95 28.614ZM72.7753 30L70.2973 22.622L72.0613 22.608L73.7133 27.886L73.3913 27.844L75.1973 23.742H76.2193L78.0673 27.858L77.7033 27.886L79.3693 22.622H81.1333L78.6273 30H77.4232L75.5193 25.562L75.7853 25.59L73.9933 30H72.7753ZM82.3869 30V22.622H84.0529L84.0809 24.134L83.7589 24.302C83.8616 23.9753 84.0436 23.6767 84.3049 23.406C84.5756 23.126 84.8976 22.902 85.2709 22.734C85.6442 22.5567 86.0316 22.468 86.4329 22.468C86.9929 22.468 87.4596 22.58 87.8329 22.804C88.2156 23.028 88.5002 23.364 88.6869 23.812C88.8736 24.26 88.9669 24.82 88.9669 25.492V30H87.2589V25.618C87.2589 25.2353 87.2076 24.9227 87.1049 24.68C87.0022 24.428 86.8436 24.246 86.6289 24.134C86.4142 24.0127 86.1529 23.9613 85.8449 23.98C85.5929 23.98 85.3596 24.022 85.1449 24.106C84.9302 24.1807 84.7436 24.2927 84.5849 24.442C84.4356 24.582 84.3142 24.75 84.2209 24.946C84.1369 25.1327 84.0949 25.338 84.0949 25.562V30H83.2409C83.0822 30 82.9282 30 82.7789 30C82.6389 30 82.5082 30 82.3869 30ZM90.9322 30V19.64H92.6402V30H90.9322ZM97.9012 30.14C97.1639 30.14 96.5059 29.9767 95.9272 29.65C95.3485 29.314 94.8912 28.8567 94.5552 28.278C94.2285 27.6993 94.0652 27.0413 94.0652 26.304C94.0652 25.5667 94.2285 24.9087 94.5552 24.33C94.8912 23.7513 95.3485 23.2987 95.9272 22.972C96.5059 22.636 97.1639 22.468 97.9012 22.468C98.6292 22.468 99.2825 22.636 99.8612 22.972C100.44 23.2987 100.893 23.7513 101.219 24.33C101.555 24.9087 101.723 25.5667 101.723 26.304C101.723 27.0413 101.555 27.6993 101.219 28.278C100.893 28.8567 100.44 29.314 99.8612 29.65C99.2825 29.9767 98.6292 30.14 97.9012 30.14ZM97.9012 28.614C98.3025 28.614 98.6619 28.516 98.9792 28.32C99.2965 28.1147 99.5439 27.8393 99.7212 27.494C99.9079 27.1393 99.9965 26.7427 99.9872 26.304C99.9965 25.856 99.9079 25.4593 99.7212 25.114C99.5439 24.7593 99.2965 24.484 98.9792 24.288C98.6619 24.092 98.3025 23.994 97.9012 23.994C97.4999 23.994 97.1359 24.0967 96.8092 24.302C96.4919 24.498 96.2445 24.7733 96.0672 25.128C95.8899 25.4733 95.8012 25.8653 95.8012 26.304C95.8012 26.7427 95.8899 27.1393 96.0672 27.494C96.2445 27.8393 96.4919 28.1147 96.8092 28.32C97.1359 28.516 97.4999 28.614 97.9012 28.614ZM107.478 30V25.282C107.478 24.8807 107.343 24.568 107.072 24.344C106.811 24.1107 106.47 23.994 106.05 23.994C105.658 23.994 105.303 24.0733 104.986 24.232C104.669 24.3813 104.375 24.624 104.104 24.96L103.04 23.896C103.479 23.4293 103.964 23.0747 104.496 22.832C105.028 22.5893 105.602 22.468 106.218 22.468C106.806 22.468 107.31 22.5613 107.73 22.748C108.159 22.9347 108.491 23.2147 108.724 23.588C108.957 23.952 109.074 24.4 109.074 24.932V30H107.478ZM105.378 30.14C104.902 30.14 104.477 30.0467 104.104 29.86C103.731 29.6733 103.432 29.4167 103.208 29.09C102.993 28.754 102.886 28.362 102.886 27.914C102.886 27.522 102.956 27.1813 103.096 26.892C103.236 26.5933 103.441 26.346 103.712 26.15C103.992 25.954 104.337 25.8093 104.748 25.716C105.168 25.6133 105.649 25.562 106.19 25.562H108.304L108.178 26.794H106.092C105.84 26.794 105.616 26.8173 105.42 26.864C105.224 26.9107 105.056 26.9807 104.916 27.074C104.776 27.1673 104.673 27.2793 104.608 27.41C104.543 27.5313 104.51 27.6807 104.51 27.858C104.51 28.0447 104.557 28.208 104.65 28.348C104.743 28.4787 104.869 28.5813 105.028 28.656C105.187 28.7307 105.373 28.768 105.588 28.768C105.896 28.768 106.185 28.7167 106.456 28.614C106.736 28.5113 106.983 28.3667 107.198 28.18C107.413 27.9933 107.581 27.7833 107.702 27.55L108.052 28.502C107.856 28.8287 107.613 29.1133 107.324 29.356C107.044 29.5987 106.736 29.79 106.4 29.93C106.073 30.07 105.733 30.14 105.378 30.14ZM113.875 30.14C113.212 30.14 112.619 29.9767 112.097 29.65C111.583 29.314 111.173 28.8613 110.865 28.292C110.566 27.7133 110.417 27.0507 110.417 26.304C110.417 25.5667 110.566 24.9087 110.865 24.33C111.163 23.7513 111.569 23.2987 112.083 22.972C112.605 22.636 113.193 22.468 113.847 22.468C114.201 22.468 114.542 22.524 114.869 22.636C115.205 22.748 115.503 22.902 115.765 23.098C116.035 23.2847 116.245 23.4947 116.395 23.728C116.553 23.9613 116.637 24.204 116.647 24.456L116.185 24.512V19.64H117.907V30H116.241L116.199 28.278L116.535 28.306C116.525 28.53 116.446 28.7493 116.297 28.964C116.147 29.1787 115.947 29.3747 115.695 29.552C115.452 29.7293 115.172 29.874 114.855 29.986C114.537 30.0887 114.211 30.14 113.875 30.14ZM114.197 28.684C114.598 28.684 114.953 28.586 115.261 28.39C115.569 28.1847 115.807 27.9047 115.975 27.55C116.152 27.186 116.241 26.7707 116.241 26.304C116.241 25.8373 116.152 25.4267 115.975 25.072C115.807 24.7173 115.569 24.4373 115.261 24.232C114.953 24.0267 114.598 23.924 114.197 23.924C113.786 23.924 113.427 24.0267 113.119 24.232C112.82 24.4373 112.582 24.7173 112.405 25.072C112.227 25.4267 112.139 25.8373 112.139 26.304C112.139 26.7707 112.227 27.186 112.405 27.55C112.582 27.9047 112.82 28.1847 113.119 28.39C113.427 28.586 113.786 28.684 114.197 28.684ZM124.271 30V20.2H128.541C129.12 20.2 129.652 20.34 130.137 20.62C130.622 20.8907 131.005 21.264 131.285 21.74C131.574 22.2067 131.719 22.734 131.719 23.322C131.719 23.882 131.574 24.3953 131.285 24.862C131.005 25.3287 130.622 25.702 130.137 25.982C129.661 26.262 129.129 26.402 128.541 26.402H126.049V30H124.271ZM129.969 30L127.477 25.576L129.339 25.226L132.111 30.014L129.969 30ZM126.049 24.806H128.555C128.816 24.806 129.05 24.7453 129.255 24.624C129.46 24.4933 129.619 24.3207 129.731 24.106C129.843 23.882 129.899 23.6347 129.899 23.364C129.899 23.056 129.829 22.79 129.689 22.566C129.549 22.342 129.353 22.1647 129.101 22.034C128.849 21.9033 128.56 21.838 128.233 21.838H126.049V24.806ZM136.923 30.14C136.148 30.14 135.462 29.9813 134.865 29.664C134.277 29.3373 133.815 28.894 133.479 28.334C133.152 27.7647 132.989 27.1113 132.989 26.374C132.989 25.7953 133.082 25.268 133.269 24.792C133.456 24.316 133.717 23.9053 134.053 23.56C134.389 23.2053 134.786 22.9347 135.243 22.748C135.71 22.552 136.214 22.454 136.755 22.454C137.25 22.454 137.702 22.5473 138.113 22.734C138.533 22.9207 138.897 23.1773 139.205 23.504C139.513 23.8213 139.746 24.204 139.905 24.652C140.073 25.0907 140.152 25.5713 140.143 26.094L140.129 26.71H134.165L133.829 25.52H138.687L138.477 25.758V25.436C138.449 25.156 138.356 24.9087 138.197 24.694C138.038 24.47 137.833 24.2973 137.581 24.176C137.338 24.0453 137.068 23.98 136.769 23.98C136.312 23.98 135.924 24.0687 135.607 24.246C135.29 24.414 135.047 24.666 134.879 25.002C134.72 25.338 134.641 25.7533 134.641 26.248C134.641 26.724 134.739 27.1393 134.935 27.494C135.14 27.8487 135.43 28.124 135.803 28.32C136.176 28.516 136.61 28.614 137.105 28.614C137.45 28.614 137.768 28.558 138.057 28.446C138.356 28.334 138.673 28.1333 139.009 27.844L139.849 29.02C139.597 29.2533 139.308 29.454 138.981 29.622C138.664 29.7807 138.328 29.9067 137.973 30C137.618 30.0933 137.268 30.14 136.923 30.14ZM144.132 30.14C143.488 30.14 142.905 30.0327 142.382 29.818C141.869 29.594 141.449 29.2767 141.122 28.866L142.228 27.914C142.508 28.222 142.821 28.4507 143.166 28.6C143.511 28.74 143.875 28.81 144.258 28.81C144.417 28.81 144.557 28.7913 144.678 28.754C144.809 28.7167 144.921 28.6607 145.014 28.586C145.107 28.5113 145.177 28.4227 145.224 28.32C145.28 28.2173 145.308 28.1053 145.308 27.984C145.308 27.76 145.224 27.5827 145.056 27.452C144.963 27.396 144.818 27.3307 144.622 27.256C144.426 27.172 144.169 27.0927 143.852 27.018C143.348 26.8873 142.923 26.738 142.578 26.57C142.242 26.3927 141.981 26.1967 141.794 25.982C141.635 25.7953 141.519 25.5947 141.444 25.38C141.369 25.156 141.332 24.9087 141.332 24.638C141.332 24.218 141.453 23.8447 141.696 23.518C141.948 23.1913 142.279 22.9347 142.69 22.748C143.101 22.5613 143.558 22.468 144.062 22.468C144.435 22.468 144.795 22.5147 145.14 22.608C145.495 22.7013 145.821 22.8367 146.12 23.014C146.419 23.182 146.675 23.3873 146.89 23.63L145.938 24.68C145.77 24.512 145.579 24.3627 145.364 24.232C145.159 24.092 144.949 23.9847 144.734 23.91C144.519 23.8353 144.319 23.798 144.132 23.798C143.955 23.798 143.796 23.8167 143.656 23.854C143.516 23.882 143.399 23.9287 143.306 23.994C143.213 24.0593 143.138 24.1433 143.082 24.246C143.035 24.3393 143.012 24.4467 143.012 24.568C143.021 24.6893 143.049 24.8013 143.096 24.904C143.152 24.9973 143.227 25.0767 143.32 25.142C143.413 25.2073 143.563 25.282 143.768 25.366C143.973 25.45 144.239 25.5293 144.566 25.604C145.023 25.7253 145.406 25.8607 145.714 26.01C146.022 26.1593 146.265 26.332 146.442 26.528C146.619 26.696 146.745 26.892 146.82 27.116C146.895 27.34 146.932 27.592 146.932 27.872C146.932 28.3107 146.806 28.7027 146.554 29.048C146.311 29.384 145.98 29.65 145.56 29.846C145.14 30.042 144.664 30.14 144.132 30.14ZM151.011 30.14C150.479 30.14 150.017 30.0187 149.625 29.776C149.243 29.5333 148.944 29.1927 148.729 28.754C148.524 28.3153 148.421 27.788 148.421 27.172V22.622H150.129V26.808C150.129 27.3867 150.265 27.844 150.535 28.18C150.815 28.516 151.203 28.684 151.697 28.684C151.94 28.684 152.159 28.6467 152.355 28.572C152.561 28.488 152.738 28.376 152.887 28.236C153.037 28.0867 153.153 27.9093 153.237 27.704C153.321 27.4987 153.363 27.2793 153.363 27.046V22.622H155.071V30H153.405L153.377 28.46L153.685 28.292C153.573 28.6373 153.382 28.95 153.111 29.23C152.85 29.51 152.537 29.734 152.173 29.902C151.809 30.0607 151.422 30.14 151.011 30.14ZM157.076 30V22.622H158.756L158.784 24.12L158.504 24.232C158.588 23.9893 158.714 23.7653 158.882 23.56C159.05 23.3453 159.25 23.1587 159.484 23C159.717 22.8413 159.964 22.72 160.226 22.636C160.487 22.5427 160.758 22.496 161.038 22.496C161.439 22.496 161.794 22.5613 162.102 22.692C162.41 22.8227 162.666 23.0233 162.872 23.294C163.086 23.5647 163.25 23.91 163.362 24.33L163.096 24.274L163.194 24.05C163.306 23.826 163.455 23.6207 163.642 23.434C163.828 23.2473 164.038 23.084 164.272 22.944C164.505 22.7947 164.748 22.6827 165 22.608C165.261 22.5333 165.513 22.496 165.756 22.496C166.316 22.496 166.782 22.608 167.156 22.832C167.529 23.056 167.809 23.3967 167.996 23.854C168.182 24.3113 168.276 24.876 168.276 25.548V30H166.554V25.66C166.554 25.1 166.442 24.6847 166.218 24.414C166.003 24.1433 165.667 24.008 165.21 24.008C164.967 24.008 164.743 24.05 164.538 24.134C164.332 24.2087 164.15 24.3207 163.992 24.47C163.842 24.61 163.726 24.778 163.642 24.974C163.558 25.1607 163.516 25.3707 163.516 25.604V30H161.794V25.646C161.794 25.114 161.677 24.708 161.444 24.428C161.22 24.148 160.898 24.008 160.478 24.008C160.235 24.008 160.011 24.05 159.806 24.134C159.61 24.2087 159.432 24.3207 159.274 24.47C159.124 24.61 159.008 24.7733 158.924 24.96C158.84 25.1467 158.798 25.352 158.798 25.576V30H157.076ZM173.646 30.14C172.871 30.14 172.185 29.9813 171.588 29.664C171 29.3373 170.538 28.894 170.202 28.334C169.875 27.7647 169.712 27.1113 169.712 26.374C169.712 25.7953 169.805 25.268 169.992 24.792C170.178 24.316 170.44 23.9053 170.776 23.56C171.112 23.2053 171.508 22.9347 171.966 22.748C172.432 22.552 172.936 22.454 173.478 22.454C173.972 22.454 174.425 22.5473 174.836 22.734C175.256 22.9207 175.62 23.1773 175.928 23.504C176.236 23.8213 176.469 24.204 176.628 24.652C176.796 25.0907 176.875 25.5713 176.866 26.094L176.852 26.71H170.888L170.552 25.52H175.41L175.2 25.758V25.436C175.172 25.156 175.078 24.9087 174.92 24.694C174.761 24.47 174.556 24.2973 174.304 24.176C174.061 24.0453 173.79 23.98 173.492 23.98C173.034 23.98 172.647 24.0687 172.33 24.246C172.012 24.414 171.77 24.666 171.602 25.002C171.443 25.338 171.364 25.7533 171.364 26.248C171.364 26.724 171.462 27.1393 171.658 27.494C171.863 27.8487 172.152 28.124 172.526 28.32C172.899 28.516 173.333 28.614 173.828 28.614C174.173 28.614 174.49 28.558 174.78 28.446C175.078 28.334 175.396 28.1333 175.732 27.844L176.572 29.02C176.32 29.2533 176.03 29.454 175.704 29.622C175.386 29.7807 175.05 29.9067 174.696 30C174.341 30.0933 173.991 30.14 173.646 30.14Z" fill="#004BBB"/>
</svg>
