<svg width="240" height="50" viewBox="0 0 240 50" fill="none" xmlns="http://www.w3.org/2000/svg">
<rect x="0.5" y="0.5" width="239" height="49" rx="5.5" fill="white" stroke="#004BBB"/>
<path d="M223.723 22.5853L217.517 28.7972C217.443 28.871 217.363 28.9231 217.277 28.9535C217.191 28.9845 217.099 29 217 29C216.901 29 216.809 28.9845 216.723 28.9535C216.637 28.9231 216.557 28.871 216.483 28.7972L210.259 22.5853C210.086 22.4132 210 22.1982 210 21.9401C210 21.682 210.092 21.4608 210.277 21.2765C210.462 21.0922 210.677 21 210.923 21C211.17 21 211.385 21.0922 211.57 21.2765L217 26.6959L222.43 21.2765C222.602 21.1045 222.815 21.0184 223.067 21.0184C223.32 21.0184 223.538 21.1106 223.723 21.2949C223.908 21.4793 224 21.6943 224 21.9401C224 22.1859 223.908 22.4009 223.723 22.5853Z" fill="#004BBB"/>
<path d="M24.7291 15.833C23.5925 15.833 22.6666 16.7588 22.6666 17.8955V32.1038C22.6666 33.2405 23.5925 34.1663 24.7291 34.1663H30.7474C30.3533 33.763 30.0232 33.3001 29.7574 32.7913H24.7291C24.3487 32.7913 24.0416 32.4843 24.0416 32.1038V17.8955C24.0416 17.5151 24.3487 17.208 24.7291 17.208H35.2708C35.6512 17.208 35.9583 17.5151 35.9583 17.8955V24.1519C36.435 24.2299 36.8979 24.358 37.3333 24.5413V17.8955C37.3333 16.7588 36.4075 15.833 35.2708 15.833H24.7291ZM30 18.583C29.5745 18.583 29.1665 18.752 28.8656 19.0529C28.5648 19.3537 28.3958 19.7617 28.3958 20.1872C28.3958 20.6126 28.5648 21.0207 28.8656 21.3215C29.1665 21.6223 29.5745 21.7913 30 21.7913C30.4254 21.7913 30.8334 21.6223 31.1343 21.3215C31.4351 21.0207 31.6041 20.6126 31.6041 20.1872C31.6041 19.7617 31.4351 19.3537 31.1343 19.0529C30.8334 18.752 30.4254 18.583 30 18.583ZM27.9375 22.708C27.558 22.708 27.25 23.016 27.25 23.3955V23.8538C27.25 24.7398 28.481 25.458 30 25.458C31.5189 25.458 32.75 24.7398 32.75 23.8538V23.3955C32.75 23.016 32.442 22.708 32.0625 22.708H27.9375ZM35.0416 24.9997C32.2572 24.9997 30 27.257 30 30.0413C30 32.8257 32.2572 35.083 35.0416 35.083C37.826 35.083 40.0833 32.8257 40.0833 30.0413C40.0833 27.257 37.826 24.9997 35.0416 24.9997ZM35.0416 26.3747C35.2951 26.3747 35.5 26.58 35.5 26.833V31.6849L37.0092 30.1756C37.1884 29.9964 37.4781 29.9964 37.6573 30.1756C37.8366 30.3548 37.8366 30.6445 37.6573 30.8237L35.3657 33.1154C35.1865 33.2946 34.8968 33.2946 34.7176 33.1154L32.4259 30.8237C32.2467 30.6445 32.2467 30.3548 32.4259 30.1756C32.5153 30.0862 32.6326 30.0413 32.75 30.0413C32.8673 30.0413 32.9846 30.0862 33.074 30.1756L34.5833 31.6849V26.833C34.5833 26.58 34.7882 26.3747 35.0416 26.3747ZM26.5625 26.833C26.182 26.833 25.875 27.1401 25.875 27.5205C25.875 27.9009 26.182 28.208 26.5625 28.208H29.3769C29.5327 27.7176 29.7528 27.2593 30.0232 26.833H26.5625ZM26.5625 29.583C26.182 29.583 25.875 29.8901 25.875 30.2705C25.875 30.6509 26.182 30.958 26.5625 30.958H29.1522C29.1064 30.6555 29.0833 30.353 29.0833 30.0413C29.0833 29.8855 29.0882 29.7343 29.1066 29.583H26.5625Z" fill="#004BBB"/>
<path d="M52.316 30V20.2H56.25C56.9593 20.2 57.5987 20.3167 58.168 20.55C58.7467 20.7833 59.2413 21.1193 59.652 21.558C60.0627 21.9967 60.38 22.5147 60.604 23.112C60.828 23.7093 60.94 24.372 60.94 25.1C60.94 25.828 60.828 26.4953 60.604 27.102C60.38 27.6993 60.0627 28.2173 59.652 28.656C59.2507 29.0853 58.7607 29.4167 58.182 29.65C57.6033 29.8833 56.9593 30 56.25 30H52.316ZM54.122 28.586L53.996 28.32H56.18C56.6373 28.32 57.048 28.2453 57.412 28.096C57.776 27.9467 58.0793 27.7367 58.322 27.466C58.574 27.186 58.7653 26.8453 58.896 26.444C59.036 26.0427 59.106 25.5947 59.106 25.1C59.106 24.6053 59.036 24.162 58.896 23.77C58.7653 23.3687 58.574 23.028 58.322 22.748C58.07 22.468 57.762 22.2533 57.398 22.104C57.0433 21.9547 56.6373 21.88 56.18 21.88H53.954L54.122 21.642V28.586ZM65.95 30.14C65.2127 30.14 64.5547 29.9767 63.976 29.65C63.3974 29.314 62.94 28.8567 62.604 28.278C62.2774 27.6993 62.114 27.0413 62.114 26.304C62.114 25.5667 62.2774 24.9087 62.604 24.33C62.94 23.7513 63.3974 23.2987 63.976 22.972C64.5547 22.636 65.2127 22.468 65.95 22.468C66.678 22.468 67.3314 22.636 67.91 22.972C68.4887 23.2987 68.9414 23.7513 69.268 24.33C69.604 24.9087 69.772 25.5667 69.772 26.304C69.772 27.0413 69.604 27.6993 69.268 28.278C68.9414 28.8567 68.4887 29.314 67.91 29.65C67.3314 29.9767 66.678 30.14 65.95 30.14ZM65.95 28.614C66.3514 28.614 66.7107 28.516 67.028 28.32C67.3454 28.1147 67.5927 27.8393 67.77 27.494C67.9567 27.1393 68.0454 26.7427 68.036 26.304C68.0454 25.856 67.9567 25.4593 67.77 25.114C67.5927 24.7593 67.3454 24.484 67.028 24.288C66.7107 24.092 66.3514 23.994 65.95 23.994C65.5487 23.994 65.1847 24.0967 64.858 24.302C64.5407 24.498 64.2934 24.7733 64.116 25.128C63.9387 25.4733 63.85 25.8653 63.85 26.304C63.85 26.7427 63.9387 27.1393 64.116 27.494C64.2934 27.8393 64.5407 28.1147 64.858 28.32C65.1847 28.516 65.5487 28.614 65.95 28.614ZM72.7753 30L70.2973 22.622L72.0613 22.608L73.7133 27.886L73.3913 27.844L75.1973 23.742H76.2193L78.0673 27.858L77.7033 27.886L79.3693 22.622H81.1333L78.6273 30H77.4232L75.5193 25.562L75.7853 25.59L73.9933 30H72.7753ZM82.3869 30V22.622H84.0529L84.0809 24.134L83.7589 24.302C83.8616 23.9753 84.0436 23.6767 84.3049 23.406C84.5756 23.126 84.8976 22.902 85.2709 22.734C85.6442 22.5567 86.0316 22.468 86.4329 22.468C86.9929 22.468 87.4596 22.58 87.8329 22.804C88.2156 23.028 88.5002 23.364 88.6869 23.812C88.8736 24.26 88.9669 24.82 88.9669 25.492V30H87.2589V25.618C87.2589 25.2353 87.2076 24.9227 87.1049 24.68C87.0022 24.428 86.8436 24.246 86.6289 24.134C86.4142 24.0127 86.1529 23.9613 85.8449 23.98C85.5929 23.98 85.3596 24.022 85.1449 24.106C84.9302 24.1807 84.7436 24.2927 84.5849 24.442C84.4356 24.582 84.3142 24.75 84.2209 24.946C84.1369 25.1327 84.0949 25.338 84.0949 25.562V30H83.2409C83.0822 30 82.9282 30 82.7789 30C82.6389 30 82.5082 30 82.3869 30ZM90.9322 30V19.64H92.6402V30H90.9322ZM97.9012 30.14C97.1639 30.14 96.5059 29.9767 95.9272 29.65C95.3485 29.314 94.8912 28.8567 94.5552 28.278C94.2285 27.6993 94.0652 27.0413 94.0652 26.304C94.0652 25.5667 94.2285 24.9087 94.5552 24.33C94.8912 23.7513 95.3485 23.2987 95.9272 22.972C96.5059 22.636 97.1639 22.468 97.9012 22.468C98.6292 22.468 99.2825 22.636 99.8612 22.972C100.44 23.2987 100.893 23.7513 101.219 24.33C101.555 24.9087 101.723 25.5667 101.723 26.304C101.723 27.0413 101.555 27.6993 101.219 28.278C100.893 28.8567 100.44 29.314 99.8612 29.65C99.2825 29.9767 98.6292 30.14 97.9012 30.14ZM97.9012 28.614C98.3025 28.614 98.6619 28.516 98.9792 28.32C99.2965 28.1147 99.5439 27.8393 99.7212 27.494C99.9079 27.1393 99.9965 26.7427 99.9872 26.304C99.9965 25.856 99.9079 25.4593 99.7212 25.114C99.5439 24.7593 99.2965 24.484 98.9792 24.288C98.6619 24.092 98.3025 23.994 97.9012 23.994C97.4999 23.994 97.1359 24.0967 96.8092 24.302C96.4919 24.498 96.2445 24.7733 96.0672 25.128C95.8899 25.4733 95.8012 25.8653 95.8012 26.304C95.8012 26.7427 95.8899 27.1393 96.0672 27.494C96.2445 27.8393 96.4919 28.1147 96.8092 28.32C97.1359 28.516 97.4999 28.614 97.9012 28.614ZM107.478 30V25.282C107.478 24.8807 107.343 24.568 107.072 24.344C106.811 24.1107 106.47 23.994 106.05 23.994C105.658 23.994 105.303 24.0733 104.986 24.232C104.669 24.3813 104.375 24.624 104.104 24.96L103.04 23.896C103.479 23.4293 103.964 23.0747 104.496 22.832C105.028 22.5893 105.602 22.468 106.218 22.468C106.806 22.468 107.31 22.5613 107.73 22.748C108.159 22.9347 108.491 23.2147 108.724 23.588C108.957 23.952 109.074 24.4 109.074 24.932V30H107.478ZM105.378 30.14C104.902 30.14 104.477 30.0467 104.104 29.86C103.731 29.6733 103.432 29.4167 103.208 29.09C102.993 28.754 102.886 28.362 102.886 27.914C102.886 27.522 102.956 27.1813 103.096 26.892C103.236 26.5933 103.441 26.346 103.712 26.15C103.992 25.954 104.337 25.8093 104.748 25.716C105.168 25.6133 105.649 25.562 106.19 25.562H108.304L108.178 26.794H106.092C105.84 26.794 105.616 26.8173 105.42 26.864C105.224 26.9107 105.056 26.9807 104.916 27.074C104.776 27.1673 104.673 27.2793 104.608 27.41C104.543 27.5313 104.51 27.6807 104.51 27.858C104.51 28.0447 104.557 28.208 104.65 28.348C104.743 28.4787 104.869 28.5813 105.028 28.656C105.187 28.7307 105.373 28.768 105.588 28.768C105.896 28.768 106.185 28.7167 106.456 28.614C106.736 28.5113 106.983 28.3667 107.198 28.18C107.413 27.9933 107.581 27.7833 107.702 27.55L108.052 28.502C107.856 28.8287 107.613 29.1133 107.324 29.356C107.044 29.5987 106.736 29.79 106.4 29.93C106.073 30.07 105.733 30.14 105.378 30.14ZM113.875 30.14C113.212 30.14 112.619 29.9767 112.097 29.65C111.583 29.314 111.173 28.8613 110.865 28.292C110.566 27.7133 110.417 27.0507 110.417 26.304C110.417 25.5667 110.566 24.9087 110.865 24.33C111.163 23.7513 111.569 23.2987 112.083 22.972C112.605 22.636 113.193 22.468 113.847 22.468C114.201 22.468 114.542 22.524 114.869 22.636C115.205 22.748 115.503 22.902 115.765 23.098C116.035 23.2847 116.245 23.4947 116.395 23.728C116.553 23.9613 116.637 24.204 116.647 24.456L116.185 24.512V19.64H117.907V30H116.241L116.199 28.278L116.535 28.306C116.525 28.53 116.446 28.7493 116.297 28.964C116.147 29.1787 115.947 29.3747 115.695 29.552C115.452 29.7293 115.172 29.874 114.855 29.986C114.537 30.0887 114.211 30.14 113.875 30.14ZM114.197 28.684C114.598 28.684 114.953 28.586 115.261 28.39C115.569 28.1847 115.807 27.9047 115.975 27.55C116.152 27.186 116.241 26.7707 116.241 26.304C116.241 25.8373 116.152 25.4267 115.975 25.072C115.807 24.7173 115.569 24.4373 115.261 24.232C114.953 24.0267 114.598 23.924 114.197 23.924C113.786 23.924 113.427 24.0267 113.119 24.232C112.82 24.4373 112.582 24.7173 112.405 25.072C112.227 25.4267 112.139 25.8373 112.139 26.304C112.139 26.7707 112.227 27.186 112.405 27.55C112.582 27.9047 112.82 28.1847 113.119 28.39C113.427 28.586 113.786 28.684 114.197 28.684ZM126.231 30V21.88H123.431V20.2H130.907V21.88H128.037V30H126.231ZM134.448 30.14C133.674 30.14 132.988 29.9813 132.39 29.664C131.802 29.3373 131.34 28.894 131.004 28.334C130.678 27.7647 130.514 27.1113 130.514 26.374C130.514 25.7953 130.608 25.268 130.794 24.792C130.981 24.316 131.242 23.9053 131.578 23.56C131.914 23.2053 132.311 22.9347 132.768 22.748C133.235 22.552 133.739 22.454 134.28 22.454C134.775 22.454 135.228 22.5473 135.638 22.734C136.058 22.9207 136.422 23.1773 136.73 23.504C137.038 23.8213 137.272 24.204 137.43 24.652C137.598 25.0907 137.678 25.5713 137.668 26.094L137.654 26.71H131.69L131.354 25.52H136.212L136.002 25.758V25.436C135.974 25.156 135.881 24.9087 135.722 24.694C135.564 24.47 135.358 24.2973 135.106 24.176C134.864 24.0453 134.593 23.98 134.294 23.98C133.837 23.98 133.45 24.0687 133.132 24.246C132.815 24.414 132.572 24.666 132.404 25.002C132.246 25.338 132.166 25.7533 132.166 26.248C132.166 26.724 132.264 27.1393 132.46 27.494C132.666 27.8487 132.955 28.124 133.328 28.32C133.702 28.516 134.136 28.614 134.63 28.614C134.976 28.614 135.293 28.558 135.582 28.446C135.881 28.334 136.198 28.1333 136.534 27.844L137.374 29.02C137.122 29.2533 136.833 29.454 136.506 29.622C136.189 29.7807 135.853 29.9067 135.498 30C135.144 30.0933 134.794 30.14 134.448 30.14ZM139.166 30V22.622H140.846L140.874 24.12L140.594 24.232C140.678 23.9893 140.804 23.7653 140.972 23.56C141.14 23.3453 141.34 23.1587 141.574 23C141.807 22.8413 142.054 22.72 142.316 22.636C142.577 22.5427 142.848 22.496 143.128 22.496C143.529 22.496 143.884 22.5613 144.192 22.692C144.5 22.8227 144.756 23.0233 144.962 23.294C145.176 23.5647 145.34 23.91 145.452 24.33L145.186 24.274L145.284 24.05C145.396 23.826 145.545 23.6207 145.732 23.434C145.918 23.2473 146.128 23.084 146.362 22.944C146.595 22.7947 146.838 22.6827 147.09 22.608C147.351 22.5333 147.603 22.496 147.846 22.496C148.406 22.496 148.872 22.608 149.246 22.832C149.619 23.056 149.899 23.3967 150.086 23.854C150.272 24.3113 150.366 24.876 150.366 25.548V30H148.644V25.66C148.644 25.1 148.532 24.6847 148.308 24.414C148.093 24.1433 147.757 24.008 147.3 24.008C147.057 24.008 146.833 24.05 146.628 24.134C146.422 24.2087 146.24 24.3207 146.082 24.47C145.932 24.61 145.816 24.778 145.732 24.974C145.648 25.1607 145.606 25.3707 145.606 25.604V30H143.884V25.646C143.884 25.114 143.767 24.708 143.534 24.428C143.31 24.148 142.988 24.008 142.568 24.008C142.325 24.008 142.101 24.05 141.896 24.134C141.7 24.2087 141.522 24.3207 141.364 24.47C141.214 24.61 141.098 24.7733 141.014 24.96C140.93 25.1467 140.888 25.352 140.888 25.576V30H139.166ZM152.278 33.08V22.622H153.958L153.986 24.288L153.692 24.162C153.748 23.8727 153.906 23.602 154.168 23.35C154.429 23.098 154.746 22.8927 155.12 22.734C155.502 22.5753 155.899 22.496 156.31 22.496C156.963 22.496 157.542 22.6593 158.046 22.986C158.559 23.3127 158.96 23.7653 159.25 24.344C159.548 24.9133 159.698 25.5667 159.698 26.304C159.698 27.0413 159.553 27.6993 159.264 28.278C158.974 28.8473 158.573 29.3 158.06 29.636C157.556 29.9627 156.982 30.126 156.338 30.126C155.908 30.126 155.493 30.042 155.092 29.874C154.7 29.706 154.368 29.4867 154.098 29.216C153.827 28.9453 153.654 28.6653 153.58 28.376L154 28.166V33.08H152.278ZM156.002 28.6C156.394 28.6 156.744 28.502 157.052 28.306C157.36 28.11 157.602 27.8393 157.78 27.494C157.957 27.1487 158.046 26.752 158.046 26.304C158.046 25.856 157.957 25.464 157.78 25.128C157.612 24.7827 157.374 24.512 157.066 24.316C156.758 24.1107 156.403 24.008 156.002 24.008C155.591 24.008 155.232 24.106 154.924 24.302C154.616 24.498 154.373 24.7687 154.196 25.114C154.018 25.4593 153.93 25.856 153.93 26.304C153.93 26.752 154.018 27.1487 154.196 27.494C154.373 27.8393 154.616 28.11 154.924 28.306C155.232 28.502 155.591 28.6 156.002 28.6ZM161.247 30V19.64H162.955V30H161.247ZM169.07 30V25.282C169.07 24.8807 168.934 24.568 168.664 24.344C168.402 24.1107 168.062 23.994 167.642 23.994C167.25 23.994 166.895 24.0733 166.578 24.232C166.26 24.3813 165.966 24.624 165.696 24.96L164.632 23.896C165.07 23.4293 165.556 23.0747 166.088 22.832C166.62 22.5893 167.194 22.468 167.81 22.468C168.398 22.468 168.902 22.5613 169.322 22.748C169.751 22.9347 170.082 23.2147 170.316 23.588C170.549 23.952 170.666 24.4 170.666 24.932V30H169.07ZM166.97 30.14C166.494 30.14 166.069 30.0467 165.696 29.86C165.322 29.6733 165.024 29.4167 164.8 29.09C164.585 28.754 164.478 28.362 164.478 27.914C164.478 27.522 164.548 27.1813 164.688 26.892C164.828 26.5933 165.033 26.346 165.304 26.15C165.584 25.954 165.929 25.8093 166.34 25.716C166.76 25.6133 167.24 25.562 167.782 25.562H169.896L169.77 26.794H167.684C167.432 26.794 167.208 26.8173 167.012 26.864C166.816 26.9107 166.648 26.9807 166.508 27.074C166.368 27.1673 166.265 27.2793 166.2 27.41C166.134 27.5313 166.102 27.6807 166.102 27.858C166.102 28.0447 166.148 28.208 166.242 28.348C166.335 28.4787 166.461 28.5813 166.62 28.656C166.778 28.7307 166.965 28.768 167.18 28.768C167.488 28.768 167.777 28.7167 168.048 28.614C168.328 28.5113 168.575 28.3667 168.79 28.18C169.004 27.9933 169.172 27.7833 169.294 27.55L169.644 28.502C169.448 28.8287 169.205 29.1133 168.916 29.356C168.636 29.5987 168.328 29.79 167.992 29.93C167.665 30.07 167.324 30.14 166.97 30.14ZM173.297 30V20.746H175.005V30H173.297ZM171.841 24.218V22.622H176.615V24.218H171.841ZM181.316 30.14C180.541 30.14 179.855 29.9813 179.258 29.664C178.67 29.3373 178.208 28.894 177.872 28.334C177.545 27.7647 177.382 27.1113 177.382 26.374C177.382 25.7953 177.475 25.268 177.662 24.792C177.848 24.316 178.11 23.9053 178.446 23.56C178.782 23.2053 179.178 22.9347 179.636 22.748C180.102 22.552 180.606 22.454 181.148 22.454C181.642 22.454 182.095 22.5473 182.506 22.734C182.926 22.9207 183.29 23.1773 183.598 23.504C183.906 23.8213 184.139 24.204 184.298 24.652C184.466 25.0907 184.545 25.5713 184.536 26.094L184.522 26.71H178.558L178.222 25.52H183.08L182.87 25.758V25.436C182.842 25.156 182.748 24.9087 182.59 24.694C182.431 24.47 182.226 24.2973 181.974 24.176C181.731 24.0453 181.46 23.98 181.162 23.98C180.704 23.98 180.317 24.0687 180 24.246C179.682 24.414 179.44 24.666 179.272 25.002C179.113 25.338 179.034 25.7533 179.034 26.248C179.034 26.724 179.132 27.1393 179.328 27.494C179.533 27.8487 179.822 28.124 180.196 28.32C180.569 28.516 181.003 28.614 181.498 28.614C181.843 28.614 182.16 28.558 182.45 28.446C182.748 28.334 183.066 28.1333 183.402 27.844L184.242 29.02C183.99 29.2533 183.7 29.454 183.374 29.622C183.056 29.7807 182.72 29.9067 182.366 30C182.011 30.0933 181.661 30.14 181.316 30.14Z" fill="#004BBB"/>
</svg>
