<svg width="32" height="17" viewBox="0 0 32 17" fill="none" xmlns="http://www.w3.org/2000/svg">
<path d="M16 0.5C13.0781 0.5 10.6875 2.89062 10.6875 5.8125C10.6875 7.42285 11.4387 8.85474 12.5801 9.83008C11.447 10.4236 10.4551 11.3201 9.75781 12.3867C9.38013 11.8389 8.88208 11.3325 8.33008 10.959C9.11865 10.187 9.625 9.12036 9.625 7.9375C9.625 5.60083 7.71167 3.6875 5.375 3.6875C3.03833 3.6875 1.125 5.60083 1.125 7.9375C1.125 9.12036 1.63135 10.187 2.41992 10.959C1.00464 11.9177 0.0625 13.553 0.0625 15.375H2.1875C2.1875 13.6152 3.61523 12.1875 5.375 12.1875C7.13477 12.1875 8.5625 13.6152 8.5625 15.375V16.4375H10.6875C10.6875 13.5115 13.074 11.125 16 11.125C18.926 11.125 21.3125 13.5115 21.3125 16.4375H23.4375V15.375C23.4375 13.6152 24.8652 12.1875 26.625 12.1875C28.3848 12.1875 29.8125 13.6152 29.8125 15.375H31.9375C31.9375 13.553 30.9954 11.9177 29.5801 10.959C30.3687 10.187 30.875 9.12036 30.875 7.9375C30.875 5.60083 28.9617 3.6875 26.625 3.6875C24.2883 3.6875 22.375 5.60083 22.375 7.9375C22.375 9.12036 22.8813 10.187 23.6699 10.959C23.1179 11.3325 22.6199 11.8389 22.2422 12.3867C21.5449 11.3201 20.553 10.4236 19.4199 9.83008C20.5613 8.85474 21.3125 7.42285 21.3125 5.8125C21.3125 2.89062 18.9219 0.5 16 0.5ZM16 2.625C17.7722 2.625 19.1875 4.04028 19.1875 5.8125C19.1875 7.58472 17.7722 9 16 9C14.2278 9 12.8125 7.58472 12.8125 5.8125C12.8125 4.04028 14.2278 2.625 16 2.625ZM5.375 5.8125C6.56201 5.8125 7.5 6.75049 7.5 7.9375C7.5 9.12451 6.56201 10.0625 5.375 10.0625C4.18799 10.0625 3.25 9.12451 3.25 7.9375C3.25 6.75049 4.18799 5.8125 5.375 5.8125ZM26.625 5.8125C27.812 5.8125 28.75 6.75049 28.75 7.9375C28.75 9.12451 27.812 10.0625 26.625 10.0625C25.438 10.0625 24.5 9.12451 24.5 7.9375C24.5 6.75049 25.438 5.8125 26.625 5.8125Z" fill="#2C2E31"/>
</svg>
