<svg width="19" height="19" viewBox="0 0 19 19" fill="none" xmlns="http://www.w3.org/2000/svg">
<path d="M9.25 10.625C12.2537 10.625 18.25 12.1325 18.25 15.125V18.5H0.25V15.125C0.25 12.1325 6.24625 10.625 9.25 10.625ZM9.25 0.5C10.4435 0.5 11.5881 0.974105 12.432 1.81802C13.2759 2.66193 13.75 3.80653 13.75 5C13.75 6.19347 13.2759 7.33807 12.432 8.18198C11.5881 9.02589 10.4435 9.5 9.25 9.5C8.05653 9.5 6.91193 9.02589 6.06802 8.18198C5.22411 7.33807 4.75 6.19347 4.75 5C4.75 3.80653 5.22411 2.66193 6.06802 1.81802C6.91193 0.974105 8.05653 0.5 9.25 0.5ZM9.25 12.7625C5.90875 12.7625 2.3875 14.405 2.3875 15.125V16.3625H16.1125V15.125C16.1125 14.405 12.5912 12.7625 9.25 12.7625ZM9.25 2.6375C8.62343 2.6375 8.02251 2.88641 7.57946 3.32946C7.13641 3.77251 6.8875 4.37343 6.8875 5C6.8875 5.62657 7.13641 6.22749 7.57946 6.67054C8.02251 7.11359 8.62343 7.3625 9.25 7.3625C9.87657 7.3625 10.4775 7.11359 10.9205 6.67054C11.3636 6.22749 11.6125 5.62657 11.6125 5C11.6125 4.37343 11.3636 3.77251 10.9205 3.32946C10.4775 2.88641 9.87657 2.6375 9.25 2.6375Z" fill="#2C2E31"/>
</svg>
