<svg width="40" height="40" viewBox="0 0 50 50" fill="none" xmlns="http://www.w3.org/2000/svg">
<rect x="0.5" y="0.5" width="49" height="49" rx="5.5" fill="white" stroke="#D3D4D9"/>
<path d="M16.6849 20.9694C17.7831 19.0739 19.5327 17.6423 21.608 16.9409C23.6833 16.2394 25.9427 16.3161 27.9656 17.1566C29.9885 17.9972 31.6371 19.5442 32.6043 21.5097C33.5714 23.4752 33.7913 25.7252 33.223 27.8408C32.6547 29.9564 31.337 31.7934 29.5151 33.0097C27.6932 34.226 25.4913 34.7387 23.3195 34.4524C21.1477 34.1661 19.154 33.1002 17.7095 31.4533C16.2651 29.8065 15.4684 27.6907 15.4678 25.5002" stroke="#595959" stroke-width="2" stroke-linecap="round" stroke-linejoin="round"/>
<path d="M21.1131 20.9839H16.5969V16.4678" stroke="#595959" stroke-width="2" stroke-linecap="round" stroke-linejoin="round"/>
</svg>
