<svg width="19" height="21" viewBox="0 0 19 21" fill="none" xmlns="http://www.w3.org/2000/svg">
<path d="M2.72925 0.833008C1.59258 0.833008 0.666748 1.75884 0.666748 2.89551V17.1038C0.666748 18.2405 1.59258 19.1663 2.72925 19.1663H8.74756C8.35339 18.763 8.02332 18.3001 7.75749 17.7913H2.72925C2.34883 17.7913 2.04175 17.4843 2.04175 17.1038V2.89551C2.04175 2.51509 2.34883 2.20801 2.72925 2.20801H13.2709C13.6513 2.20801 13.9584 2.51509 13.9584 2.89551V9.15194C14.4351 9.22985 14.898 9.35801 15.3334 9.54134V2.89551C15.3334 1.75884 14.4076 0.833008 13.2709 0.833008H2.72925ZM8.00008 3.58301C7.57463 3.58301 7.1666 3.75202 6.86576 4.05286C6.56492 4.3537 6.39591 4.76172 6.39591 5.18717C6.39591 5.61263 6.56492 6.02065 6.86576 6.32149C7.1666 6.62233 7.57463 6.79134 8.00008 6.79134C8.42553 6.79134 8.83356 6.62233 9.1344 6.32149C9.43524 6.02065 9.60425 5.61263 9.60425 5.18717C9.60425 4.76172 9.43524 4.3537 9.1344 4.05286C8.83356 3.75202 8.42553 3.58301 8.00008 3.58301ZM5.93758 7.70801C5.55808 7.70801 5.25008 8.01601 5.25008 8.39551V8.85384C5.25008 9.7398 6.48116 10.458 8.00008 10.458C9.519 10.458 10.7501 9.7398 10.7501 8.85384V8.39551C10.7501 8.01601 10.4421 7.70801 10.0626 7.70801H5.93758ZM13.0417 9.99967C10.2574 9.99967 8.00008 12.257 8.00008 15.0413C8.00008 17.8257 10.2574 20.083 13.0417 20.083C15.8261 20.083 18.0834 17.8257 18.0834 15.0413C18.0834 12.257 15.8261 9.99967 13.0417 9.99967ZM13.0417 11.3747C13.2952 11.3747 13.5001 11.58 13.5001 11.833V16.6849L15.0094 15.1756C15.1886 14.9964 15.4783 14.9964 15.6575 15.1756C15.8367 15.3548 15.8367 15.6445 15.6575 15.8237L13.3658 18.1154C13.1866 18.2946 12.8969 18.2946 12.7177 18.1154L10.426 15.8237C10.2468 15.6445 10.2468 15.3548 10.426 15.1756C10.5154 15.0862 10.6327 15.0413 10.7501 15.0413C10.8674 15.0413 10.9848 15.0862 11.0741 15.1756L12.5834 16.6849V11.833C12.5834 11.58 12.7883 11.3747 13.0417 11.3747ZM4.56258 11.833C4.18216 11.833 3.87508 12.1401 3.87508 12.5205C3.87508 12.9009 4.18216 13.208 4.56258 13.208H7.37703C7.53287 12.7176 7.75294 12.2593 8.02336 11.833H4.56258ZM4.56258 14.583C4.18216 14.583 3.87508 14.8901 3.87508 15.2705C3.87508 15.6509 4.18216 15.958 4.56258 15.958H7.15234C7.10651 15.6555 7.08341 15.353 7.08341 15.0413C7.08341 14.8855 7.08836 14.7343 7.10669 14.583H4.56258Z" fill="#004BBB"/>
</svg>
