<svg width="23" height="23" viewBox="0 0 23 23" fill="none" xmlns="http://www.w3.org/2000/svg">
<path d="M17.0207 15.0832H16.0003L15.6387 14.7345C16.4459 13.7967 17.0358 12.6921 17.3663 11.4997C17.6968 10.3072 17.7596 9.05652 17.5503 7.83699C16.9432 4.24616 13.9466 1.37866 10.3299 0.93949C9.05841 0.778633 7.76697 0.910778 6.5544 1.32581C5.34183 1.74085 4.24027 2.42777 3.33402 3.33402C2.42777 4.24027 1.74085 5.34183 1.32581 6.5544C0.910778 7.76697 0.778633 9.05841 0.93949 10.3299C1.37866 13.9466 4.24616 16.9432 7.83699 17.5503C9.05652 17.7596 10.3072 17.6968 11.4997 17.3663C12.6921 17.0358 13.7967 16.4459 14.7345 15.6387L15.0832 16.0003V17.0207L20.5728 22.5103C21.1024 23.0399 21.9678 23.0399 22.4974 22.5103C23.027 21.9807 23.027 21.1153 22.4974 20.5857L17.0207 15.0832ZM9.27074 15.0832C6.05449 15.0832 3.45824 12.487 3.45824 9.27074C3.45824 6.05449 6.05449 3.45824 9.27074 3.45824C12.487 3.45824 15.0832 6.05449 15.0832 9.27074C15.0832 12.487 12.487 15.0832 9.27074 15.0832Z" fill="white"/>
</svg>
