<svg width="20" height="20" viewBox="0 0 20 20" fill="none" xmlns="http://www.w3.org/2000/svg">
<path d="M9.99995 0C9.2115 0 8.45128 0.0997142 7.72554 0.268555C7.5742 0.303878 7.43757 0.385336 7.33453 0.501671C7.23149 0.618005 7.16713 0.763473 7.15034 0.917969L6.99116 2.36914C6.9391 2.84468 6.66441 3.26543 6.24995 3.50488C5.83632 3.74386 5.33426 3.77033 4.89644 3.57812H4.89546L3.56245 2.99121C3.42027 2.92864 3.26217 2.91176 3.10998 2.9429C2.95779 2.97403 2.81902 3.05165 2.71284 3.16504C1.67659 4.26979 0.881292 5.60753 0.429639 7.10058C0.38465 7.24919 0.386885 7.40809 0.436037 7.55537C0.485189 7.70265 0.578834 7.83105 0.704053 7.92285L1.88667 8.79004C2.27285 9.07396 2.49995 9.5214 2.49995 10C2.49995 10.4789 2.27285 10.9267 1.88667 11.21L0.704053 12.0762C0.578834 12.168 0.485189 12.2964 0.436037 12.4436C0.386885 12.5909 0.38465 12.7498 0.429639 12.8984C0.881244 14.3913 1.67591 15.7301 2.71284 16.835C2.81914 16.9482 2.95796 17.0256 3.11014 17.0566C3.26232 17.0875 3.42037 17.0705 3.56245 17.0078L4.89546 16.4209C5.3335 16.2283 5.83604 16.256 6.24995 16.4951C6.66441 16.7346 6.9391 17.1553 6.99116 17.6309L7.15034 19.082C7.16726 19.2362 7.23156 19.3814 7.3344 19.4975C7.43724 19.6136 7.57355 19.695 7.72456 19.7305C8.45064 19.8999 9.2115 20 9.99995 20C10.7884 20 11.5486 19.9003 12.2744 19.7314C12.4257 19.6961 12.5623 19.6147 12.6654 19.4983C12.7684 19.382 12.8328 19.2365 12.8496 19.082L13.0087 17.6309C13.0608 17.1553 13.3355 16.7346 13.75 16.4951C14.1636 16.2561 14.6656 16.2287 15.1035 16.4209L16.4375 17.0078C16.5795 17.0705 16.7376 17.0875 16.8898 17.0566C17.0419 17.0256 17.1808 16.9482 17.2871 16.835C18.3233 15.7302 19.1186 14.3915 19.5703 12.8984C19.6153 12.7498 19.613 12.5909 19.5639 12.4436C19.5147 12.2964 19.4211 12.168 19.2959 12.0762L18.1132 11.21C17.7271 10.9267 17.5 10.4789 17.5 10C17.5 9.52114 17.7271 9.07333 18.1132 8.79004L19.2959 7.92383C19.4211 7.83203 19.5147 7.70363 19.5639 7.55635C19.613 7.40907 19.6153 7.25017 19.5703 7.10156C19.1186 5.60851 18.3233 4.26979 17.2871 3.16504C17.1808 3.05182 17.0419 2.97438 16.8898 2.94342C16.7376 2.91246 16.5795 2.9295 16.4375 2.99219L15.1035 3.5791C14.6656 3.77131 14.1636 3.74386 13.75 3.50488C13.3355 3.26543 13.0608 2.84468 13.0087 2.36914L12.8496 0.917969C12.8326 0.763776 12.7683 0.618621 12.6655 0.502492C12.5627 0.386363 12.4264 0.304974 12.2753 0.269531C11.5493 0.100078 10.7884 0 9.99995 0ZM9.99995 1.5C10.4871 1.5 10.9549 1.58744 11.4238 1.66992L11.5175 2.53223C11.6215 3.48169 12.1734 4.32617 13 4.80371C13.827 5.28157 14.834 5.3365 15.708 4.95215L16.5009 4.60352C17.1098 5.3347 17.5919 6.16059 17.9287 7.06543L17.2255 7.58105C16.4557 8.14576 16 9.04485 16 10C16 10.9551 16.4557 11.8542 17.2255 12.4189L17.9287 12.9346C17.5919 13.8394 17.1098 14.6653 16.5009 15.3965L15.708 15.0478C14.834 14.6635 13.827 14.7184 13 15.1963C12.1734 15.6738 11.6215 16.5183 11.5175 17.4678L11.4238 18.3301C10.955 18.4123 10.4869 18.5 9.99995 18.5C9.5128 18.5 9.04499 18.4126 8.57612 18.3301L8.48237 17.4678C8.37843 16.5183 7.82649 15.6738 6.99995 15.1963C6.17287 14.7184 5.1659 14.6635 4.29194 15.0478L3.49897 15.3965C2.88994 14.6654 2.40792 13.8395 2.07124 12.9346L2.77437 12.4189C3.54418 11.8542 3.99995 10.9551 3.99995 10C3.99995 9.04485 3.54381 8.14518 2.77437 7.58008L2.07124 7.06445C2.40812 6.15927 2.89068 5.33392 3.49995 4.60254L4.29194 4.95117C5.1659 5.33553 6.17287 5.28157 6.99995 4.80371C7.82649 4.32617 8.37843 3.48169 8.48237 2.53223L8.57612 1.66992C9.04495 1.58767 9.51304 1.5 9.99995 1.5ZM9.99995 6C7.7997 6 5.99995 7.79974 5.99995 10C5.99995 12.2003 7.7997 14 9.99995 14C12.2002 14 14 12.2003 14 10C14 7.79974 12.2002 6 9.99995 6ZM9.99995 7.5C11.3895 7.5 12.5 8.6104 12.5 10C12.5 11.3896 11.3895 12.5 9.99995 12.5C8.61035 12.5 7.49995 11.3896 7.49995 10C7.49995 8.6104 8.61035 7.5 9.99995 7.5Z" fill="#1A1A1A"/>
</svg>
