<svg width="21" height="19" viewBox="0 0 21 19" fill="none" xmlns="http://www.w3.org/2000/svg">
<path d="M2.16671 0.125C1.0281 0.125 0.083374 1.06973 0.083374 2.20833V18.875H14.6667H20.9167V6.375C20.9167 5.23639 19.972 4.29167 18.8334 4.29167H14.6667V2.20833C14.6667 1.06973 13.722 0.125 12.5834 0.125H2.16671ZM2.16671 2.20833H12.5834V16.7917H2.16671V2.20833ZM4.25004 4.29167V6.375H6.33337V4.29167H4.25004ZM8.41671 4.29167V6.375H10.5V4.29167H8.41671ZM14.6667 6.375H18.8334V16.7917H14.6667V14.7083H16.75V12.625H14.6667V10.5417H16.75V8.45833H14.6667V6.375ZM4.25004 8.45833V10.5417H6.33337V8.45833H4.25004ZM8.41671 8.45833V10.5417H10.5V8.45833H8.41671ZM4.25004 12.625V14.7083H6.33337V12.625H4.25004ZM8.41671 12.625V14.7083H10.5V12.625H8.41671Z" fill="#595959"/>
</svg>
