<svg width="171" height="50" viewBox="0 0 171 50" fill="none" xmlns="http://www.w3.org/2000/svg">
<rect x="0.451816" y="0.451816" width="170.096" height="49.0964" rx="4.96997" fill="white" stroke="#004BBB" stroke-width="0.903631"/>
<path d="M22.5364 16.2124C21.5005 16.2124 20.6567 17.0541 20.6567 18.0874V31.0041C20.6567 32.0374 21.5005 32.8791 22.5364 32.8791H28.021C27.6618 32.5124 27.361 32.0916 27.1187 31.6291H22.5364C22.1897 31.6291 21.9098 31.3499 21.9098 31.0041V18.0874C21.9098 17.7416 22.1897 17.4624 22.5364 17.4624H32.1433C32.49 17.4624 32.7698 17.7416 32.7698 18.0874V23.7751C33.2042 23.8459 33.6261 23.9624 34.0229 24.1291V18.0874C34.0229 17.0541 33.1792 16.2124 32.1433 16.2124H22.5364ZM27.3398 18.7124C26.9521 18.7124 26.5803 18.866 26.3061 19.1395C26.0319 19.413 25.8779 19.784 25.8779 20.1707C25.8779 20.5575 26.0319 20.9284 26.3061 21.2019C26.5803 21.4754 26.9521 21.6291 27.3398 21.6291C27.7276 21.6291 28.0994 21.4754 28.3736 21.2019C28.6477 20.9284 28.8018 20.5575 28.8018 20.1707C28.8018 19.784 28.6477 19.413 28.3736 19.1395C28.0994 18.866 27.7276 18.7124 27.3398 18.7124ZM25.4602 22.4624C25.1144 22.4624 24.8337 22.7424 24.8337 23.0874V23.5041C24.8337 24.3095 25.9556 24.9624 27.3398 24.9624C28.7241 24.9624 29.846 24.3095 29.846 23.5041V23.0874C29.846 22.7424 29.5653 22.4624 29.2194 22.4624H25.4602ZM31.9344 24.5457C29.397 24.5457 27.3398 26.5978 27.3398 29.1291C27.3398 31.6603 29.397 33.7124 31.9344 33.7124C34.4719 33.7124 36.5291 31.6603 36.5291 29.1291C36.5291 26.5978 34.4719 24.5457 31.9344 24.5457ZM31.9344 25.7957C32.1654 25.7957 32.3521 25.9824 32.3521 26.2124V30.6232L33.7276 29.2511C33.8909 29.0882 34.1549 29.0882 34.3182 29.2511C34.4816 29.4141 34.4816 29.6774 34.3182 29.8403L32.2298 31.9237C32.0665 32.0866 31.8024 32.0866 31.6391 31.9237L29.5507 29.8403C29.3873 29.6774 29.3873 29.4141 29.5507 29.2511C29.6321 29.1699 29.7391 29.1291 29.846 29.1291C29.9529 29.1291 30.0599 29.1699 30.1413 29.2511L31.5168 30.6232V26.2124C31.5168 25.9824 31.7035 25.7957 31.9344 25.7957ZM24.2071 26.2124C23.8604 26.2124 23.5806 26.4916 23.5806 26.8374C23.5806 27.1832 23.8604 27.4624 24.2071 27.4624H26.772C26.914 27.0166 27.1146 26.5999 27.361 26.2124H24.2071ZM24.2071 28.7124C23.8604 28.7124 23.5806 28.9916 23.5806 29.3374C23.5806 29.6832 23.8604 29.9624 24.2071 29.9624H26.5673C26.5255 29.6874 26.5044 29.4124 26.5044 29.1291C26.5044 28.9874 26.5089 28.8499 26.5257 28.7124H24.2071Z" fill="#004BBB"/>
<ellipse cx="31.8966" cy="29.0909" rx="4.55665" ry="4.54545" fill="white"/>
<path d="M31.9346 33.7124C34.472 33.7124 36.5292 31.6603 36.5292 29.1291C36.5292 26.5978 34.472 24.5457 31.9346 24.5457C29.3971 24.5457 27.3399 26.5978 27.3399 29.1291C27.3399 31.6603 29.3971 33.7124 31.9346 33.7124ZM31.9346 32.4624C31.7036 32.4624 31.5169 32.2757 31.5169 32.0457L31.5169 27.6349L30.1414 29.007C29.9781 29.1699 29.7141 29.1699 29.5508 29.007C29.3874 28.8441 29.3874 28.5807 29.5508 28.4178L31.6392 26.3345C31.8025 26.1716 32.0666 26.1716 32.2299 26.3345L34.3183 28.4178C34.4817 28.5807 34.4817 28.8441 34.3183 29.007C34.2369 29.0882 34.1299 29.1291 34.023 29.1291C33.9161 29.1291 33.8091 29.0882 33.7277 29.007L32.3522 27.6349L32.3522 32.0457C32.3522 32.2757 32.1655 32.4624 31.9346 32.4624Z" fill="#004BBB"/>
<path d="M51.236 31.084C50.4613 31.084 49.7707 30.9207 49.164 30.594C48.5573 30.258 48.0767 29.8007 47.722 29.222C47.3767 28.634 47.204 27.9713 47.204 27.234V21.186H49.024V27.108C49.024 27.5467 49.122 27.9387 49.318 28.284C49.5233 28.6293 49.794 28.9047 50.13 29.11C50.466 29.306 50.8347 29.404 51.236 29.404C51.6653 29.404 52.0527 29.306 52.398 29.11C52.7433 28.9047 53.0187 28.6293 53.224 28.284C53.4293 27.9387 53.532 27.5467 53.532 27.108V21.186H55.268V27.234C55.268 27.9713 55.0907 28.634 54.736 29.222C54.3907 29.8007 53.9147 30.258 53.308 30.594C52.7013 30.9207 52.0107 31.084 51.236 31.084ZM57.4807 34.08V23.622H59.1607L59.1887 25.288L58.8947 25.162C58.9507 24.8727 59.1093 24.602 59.3707 24.35C59.632 24.098 59.9493 23.8927 60.3227 23.734C60.7053 23.5753 61.102 23.496 61.5127 23.496C62.166 23.496 62.7447 23.6593 63.2487 23.986C63.762 24.3127 64.1633 24.7653 64.4527 25.344C64.7513 25.9133 64.9007 26.5667 64.9007 27.304C64.9007 28.0413 64.756 28.6993 64.4667 29.278C64.1773 29.8473 63.776 30.3 63.2627 30.636C62.7587 30.9627 62.1847 31.126 61.5407 31.126C61.1113 31.126 60.696 31.042 60.2947 30.874C59.9027 30.706 59.5713 30.4867 59.3007 30.216C59.03 29.9453 58.8573 29.6653 58.7827 29.376L59.2027 29.166V34.08H57.4807ZM61.2047 29.6C61.5967 29.6 61.9467 29.502 62.2547 29.306C62.5627 29.11 62.8053 28.8393 62.9827 28.494C63.16 28.1487 63.2487 27.752 63.2487 27.304C63.2487 26.856 63.16 26.464 62.9827 26.128C62.8147 25.7827 62.5767 25.512 62.2687 25.316C61.9607 25.1107 61.606 25.008 61.2047 25.008C60.794 25.008 60.4347 25.106 60.1267 25.302C59.8187 25.498 59.576 25.7687 59.3987 26.114C59.2213 26.4593 59.1327 26.856 59.1327 27.304C59.1327 27.752 59.2213 28.1487 59.3987 28.494C59.576 28.8393 59.8187 29.11 60.1267 29.306C60.4347 29.502 60.794 29.6 61.2047 29.6ZM66.4497 31V20.64H68.1577V31H66.4497ZM73.4188 31.14C72.6814 31.14 72.0234 30.9767 71.4448 30.65C70.8661 30.314 70.4088 29.8567 70.0728 29.278C69.7461 28.6993 69.5828 28.0413 69.5828 27.304C69.5828 26.5667 69.7461 25.9087 70.0728 25.33C70.4088 24.7513 70.8661 24.2987 71.4448 23.972C72.0234 23.636 72.6814 23.468 73.4188 23.468C74.1468 23.468 74.8001 23.636 75.3788 23.972C75.9574 24.2987 76.4101 24.7513 76.7368 25.33C77.0728 25.9087 77.2408 26.5667 77.2408 27.304C77.2408 28.0413 77.0728 28.6993 76.7368 29.278C76.4101 29.8567 75.9574 30.314 75.3788 30.65C74.8001 30.9767 74.1468 31.14 73.4188 31.14ZM73.4188 29.614C73.8201 29.614 74.1794 29.516 74.4968 29.32C74.8141 29.1147 75.0614 28.8393 75.2388 28.494C75.4254 28.1393 75.5141 27.7427 75.5048 27.304C75.5141 26.856 75.4254 26.4593 75.2388 26.114C75.0614 25.7593 74.8141 25.484 74.4968 25.288C74.1794 25.092 73.8201 24.994 73.4188 24.994C73.0174 24.994 72.6534 25.0967 72.3268 25.302C72.0094 25.498 71.7621 25.7733 71.5848 26.128C71.4074 26.4733 71.3188 26.8653 71.3188 27.304C71.3188 27.7427 71.4074 28.1393 71.5848 28.494C71.7621 28.8393 72.0094 29.1147 72.3268 29.32C72.6534 29.516 73.0174 29.614 73.4188 29.614ZM82.9954 31V26.282C82.9954 25.8807 82.8601 25.568 82.5894 25.344C82.3281 25.1107 81.9874 24.994 81.5674 24.994C81.1754 24.994 80.8208 25.0733 80.5034 25.232C80.1861 25.3813 79.8921 25.624 79.6214 25.96L78.5574 24.896C78.9961 24.4293 79.4814 24.0747 80.0134 23.832C80.5454 23.5893 81.1194 23.468 81.7354 23.468C82.3234 23.468 82.8274 23.5613 83.2474 23.748C83.6768 23.9347 84.0081 24.2147 84.2414 24.588C84.4748 24.952 84.5914 25.4 84.5914 25.932V31H82.9954ZM80.8954 31.14C80.4194 31.14 79.9948 31.0467 79.6214 30.86C79.2481 30.6733 78.9494 30.4167 78.7254 30.09C78.5108 29.754 78.4034 29.362 78.4034 28.914C78.4034 28.522 78.4734 28.1813 78.6134 27.892C78.7534 27.5933 78.9588 27.346 79.2294 27.15C79.5094 26.954 79.8548 26.8093 80.2654 26.716C80.6854 26.6133 81.1661 26.562 81.7074 26.562H83.8214L83.6954 27.794H81.6094C81.3574 27.794 81.1334 27.8173 80.9374 27.864C80.7414 27.9107 80.5734 27.9807 80.4334 28.074C80.2934 28.1673 80.1908 28.2793 80.1254 28.41C80.0601 28.5313 80.0274 28.6807 80.0274 28.858C80.0274 29.0447 80.0741 29.208 80.1674 29.348C80.2608 29.4787 80.3868 29.5813 80.5454 29.656C80.7041 29.7307 80.8908 29.768 81.1054 29.768C81.4134 29.768 81.7028 29.7167 81.9734 29.614C82.2534 29.5113 82.5008 29.3667 82.7154 29.18C82.9301 28.9933 83.0981 28.7833 83.2194 28.55L83.5694 29.502C83.3734 29.8287 83.1308 30.1133 82.8414 30.356C82.5614 30.5987 82.2534 30.79 81.9174 30.93C81.5908 31.07 81.2501 31.14 80.8954 31.14ZM89.3923 31.14C88.7297 31.14 88.137 30.9767 87.6143 30.65C87.101 30.314 86.6903 29.8613 86.3823 29.292C86.0837 28.7133 85.9343 28.0507 85.9343 27.304C85.9343 26.5667 86.0837 25.9087 86.3823 25.33C86.681 24.7513 87.087 24.2987 87.6003 23.972C88.123 23.636 88.711 23.468 89.3643 23.468C89.719 23.468 90.0597 23.524 90.3863 23.636C90.7223 23.748 91.021 23.902 91.2823 24.098C91.553 24.2847 91.763 24.4947 91.9123 24.728C92.071 24.9613 92.155 25.204 92.1643 25.456L91.7023 25.512V20.64H93.4243V31H91.7583L91.7163 29.278L92.0523 29.306C92.043 29.53 91.9637 29.7493 91.8143 29.964C91.665 30.1787 91.4643 30.3747 91.2123 30.552C90.9697 30.7293 90.6897 30.874 90.3723 30.986C90.055 31.0887 89.7283 31.14 89.3923 31.14ZM89.7143 29.684C90.1157 29.684 90.4703 29.586 90.7783 29.39C91.0863 29.1847 91.3243 28.9047 91.4923 28.55C91.6697 28.186 91.7583 27.7707 91.7583 27.304C91.7583 26.8373 91.6697 26.4267 91.4923 26.072C91.3243 25.7173 91.0863 25.4373 90.7783 25.232C90.4703 25.0267 90.1157 24.924 89.7143 24.924C89.3037 24.924 88.9443 25.0267 88.6363 25.232C88.3377 25.4373 88.0997 25.7173 87.9223 26.072C87.745 26.4267 87.6563 26.8373 87.6563 27.304C87.6563 27.7707 87.745 28.186 87.9223 28.55C88.0997 28.9047 88.3377 29.1847 88.6363 29.39C88.9443 29.586 89.3037 29.684 89.7143 29.684ZM99.7887 31V21.2H104.059C104.637 21.2 105.169 21.34 105.655 21.62C106.14 21.8907 106.523 22.264 106.803 22.74C107.092 23.2067 107.237 23.734 107.237 24.322C107.237 24.882 107.092 25.3953 106.803 25.862C106.523 26.3287 106.14 26.702 105.655 26.982C105.179 27.262 104.647 27.402 104.059 27.402H101.567V31H99.7887ZM105.487 31L102.995 26.576L104.857 26.226L107.629 31.014L105.487 31ZM101.567 25.806H104.073C104.334 25.806 104.567 25.7453 104.773 25.624C104.978 25.4933 105.137 25.3207 105.249 25.106C105.361 24.882 105.417 24.6347 105.417 24.364C105.417 24.056 105.347 23.79 105.207 23.566C105.067 23.342 104.871 23.1647 104.619 23.034C104.367 22.9033 104.077 22.838 103.751 22.838H101.567V25.806ZM112.441 31.14C111.666 31.14 110.98 30.9813 110.383 30.664C109.795 30.3373 109.333 29.894 108.997 29.334C108.67 28.7647 108.507 28.1113 108.507 27.374C108.507 26.7953 108.6 26.268 108.787 25.792C108.973 25.316 109.235 24.9053 109.571 24.56C109.907 24.2053 110.303 23.9347 110.761 23.748C111.227 23.552 111.731 23.454 112.273 23.454C112.767 23.454 113.22 23.5473 113.631 23.734C114.051 23.9207 114.415 24.1773 114.723 24.504C115.031 24.8213 115.264 25.204 115.423 25.652C115.591 26.0907 115.67 26.5713 115.661 27.094L115.647 27.71H109.683L109.347 26.52H114.205L113.995 26.758V26.436C113.967 26.156 113.873 25.9087 113.715 25.694C113.556 25.47 113.351 25.2973 113.099 25.176C112.856 25.0453 112.585 24.98 112.287 24.98C111.829 24.98 111.442 25.0687 111.125 25.246C110.807 25.414 110.565 25.666 110.397 26.002C110.238 26.338 110.159 26.7533 110.159 27.248C110.159 27.724 110.257 28.1393 110.453 28.494C110.658 28.8487 110.947 29.124 111.321 29.32C111.694 29.516 112.128 29.614 112.623 29.614C112.968 29.614 113.285 29.558 113.575 29.446C113.873 29.334 114.191 29.1333 114.527 28.844L115.367 30.02C115.115 30.2533 114.825 30.454 114.499 30.622C114.181 30.7807 113.845 30.9067 113.491 31C113.136 31.0933 112.786 31.14 112.441 31.14ZM119.65 31.14C119.006 31.14 118.422 31.0327 117.9 30.818C117.386 30.594 116.966 30.2767 116.64 29.866L117.746 28.914C118.026 29.222 118.338 29.4507 118.684 29.6C119.029 29.74 119.393 29.81 119.776 29.81C119.934 29.81 120.074 29.7913 120.196 29.754C120.326 29.7167 120.438 29.6607 120.532 29.586C120.625 29.5113 120.695 29.4227 120.742 29.32C120.798 29.2173 120.826 29.1053 120.826 28.984C120.826 28.76 120.742 28.5827 120.574 28.452C120.48 28.396 120.336 28.3307 120.14 28.256C119.944 28.172 119.687 28.0927 119.37 28.018C118.866 27.8873 118.441 27.738 118.096 27.57C117.76 27.3927 117.498 27.1967 117.312 26.982C117.153 26.7953 117.036 26.5947 116.962 26.38C116.887 26.156 116.85 25.9087 116.85 25.638C116.85 25.218 116.971 24.8447 117.214 24.518C117.466 24.1913 117.797 23.9347 118.208 23.748C118.618 23.5613 119.076 23.468 119.58 23.468C119.953 23.468 120.312 23.5147 120.658 23.608C121.012 23.7013 121.339 23.8367 121.638 24.014C121.936 24.182 122.193 24.3873 122.408 24.63L121.456 25.68C121.288 25.512 121.096 25.3627 120.882 25.232C120.676 25.092 120.466 24.9847 120.252 24.91C120.037 24.8353 119.836 24.798 119.65 24.798C119.472 24.798 119.314 24.8167 119.174 24.854C119.034 24.882 118.917 24.9287 118.824 24.994C118.73 25.0593 118.656 25.1433 118.6 25.246C118.553 25.3393 118.53 25.4467 118.53 25.568C118.539 25.6893 118.567 25.8013 118.614 25.904C118.67 25.9973 118.744 26.0767 118.838 26.142C118.931 26.2073 119.08 26.282 119.286 26.366C119.491 26.45 119.757 26.5293 120.084 26.604C120.541 26.7253 120.924 26.8607 121.232 27.01C121.54 27.1593 121.782 27.332 121.96 27.528C122.137 27.696 122.263 27.892 122.338 28.116C122.412 28.34 122.45 28.592 122.45 28.872C122.45 29.3107 122.324 29.7027 122.072 30.048C121.829 30.384 121.498 30.65 121.078 30.846C120.658 31.042 120.182 31.14 119.65 31.14ZM126.529 31.14C125.997 31.14 125.535 31.0187 125.143 30.776C124.76 30.5333 124.462 30.1927 124.247 29.754C124.042 29.3153 123.939 28.788 123.939 28.172V23.622H125.647V27.808C125.647 28.3867 125.782 28.844 126.053 29.18C126.333 29.516 126.72 29.684 127.215 29.684C127.458 29.684 127.677 29.6467 127.873 29.572C128.078 29.488 128.256 29.376 128.405 29.236C128.554 29.0867 128.671 28.9093 128.755 28.704C128.839 28.4987 128.881 28.2793 128.881 28.046V23.622H130.589V31H128.923L128.895 29.46L129.203 29.292C129.091 29.6373 128.9 29.95 128.629 30.23C128.368 30.51 128.055 30.734 127.691 30.902C127.327 31.0607 126.94 31.14 126.529 31.14ZM132.593 31V23.622H134.273L134.301 25.12L134.021 25.232C134.105 24.9893 134.231 24.7653 134.399 24.56C134.567 24.3453 134.768 24.1587 135.001 24C135.235 23.8413 135.482 23.72 135.743 23.636C136.005 23.5427 136.275 23.496 136.555 23.496C136.957 23.496 137.311 23.5613 137.619 23.692C137.927 23.8227 138.184 24.0233 138.389 24.294C138.604 24.5647 138.767 24.91 138.879 25.33L138.613 25.274L138.711 25.05C138.823 24.826 138.973 24.6207 139.159 24.434C139.346 24.2473 139.556 24.084 139.789 23.944C140.023 23.7947 140.265 23.6827 140.517 23.608C140.779 23.5333 141.031 23.496 141.273 23.496C141.833 23.496 142.3 23.608 142.673 23.832C143.047 24.056 143.327 24.3967 143.513 24.854C143.7 25.3113 143.793 25.876 143.793 26.548V31H142.071V26.66C142.071 26.1 141.959 25.6847 141.735 25.414C141.521 25.1433 141.185 25.008 140.727 25.008C140.485 25.008 140.261 25.05 140.055 25.134C139.85 25.2087 139.668 25.3207 139.509 25.47C139.36 25.61 139.243 25.778 139.159 25.974C139.075 26.1607 139.033 26.3707 139.033 26.604V31H137.311V26.646C137.311 26.114 137.195 25.708 136.961 25.428C136.737 25.148 136.415 25.008 135.995 25.008C135.753 25.008 135.529 25.05 135.323 25.134C135.127 25.2087 134.95 25.3207 134.791 25.47C134.642 25.61 134.525 25.7733 134.441 25.96C134.357 26.1467 134.315 26.352 134.315 26.576V31H132.593ZM149.163 31.14C148.389 31.14 147.703 30.9813 147.105 30.664C146.517 30.3373 146.055 29.894 145.719 29.334C145.393 28.7647 145.229 28.1113 145.229 27.374C145.229 26.7953 145.323 26.268 145.509 25.792C145.696 25.316 145.957 24.9053 146.293 24.56C146.629 24.2053 147.026 23.9347 147.483 23.748C147.95 23.552 148.454 23.454 148.995 23.454C149.49 23.454 149.943 23.5473 150.353 23.734C150.773 23.9207 151.137 24.1773 151.445 24.504C151.753 24.8213 151.987 25.204 152.145 25.652C152.313 26.0907 152.393 26.5713 152.383 27.094L152.369 27.71H146.405L146.069 26.52H150.927L150.717 26.758V26.436C150.689 26.156 150.596 25.9087 150.437 25.694C150.279 25.47 150.073 25.2973 149.821 25.176C149.579 25.0453 149.308 24.98 149.009 24.98C148.552 24.98 148.165 25.0687 147.847 25.246C147.53 25.414 147.287 25.666 147.119 26.002C146.961 26.338 146.881 26.7533 146.881 27.248C146.881 27.724 146.979 28.1393 147.175 28.494C147.381 28.8487 147.67 29.124 148.043 29.32C148.417 29.516 148.851 29.614 149.345 29.614C149.691 29.614 150.008 29.558 150.297 29.446C150.596 29.334 150.913 29.1333 151.249 28.844L152.089 30.02C151.837 30.2533 151.548 30.454 151.221 30.622C150.904 30.7807 150.568 30.9067 150.213 31C149.859 31.0933 149.509 31.14 149.163 31.14Z" fill="#004BBB"/>
</svg>
